<?xml version="1.0"?>
<svg width="56.693" height="56.693" xmlns="http://www.w3.org/2000/svg">

 <g>
  <title>background</title>
  <rect fill="none" id="canvas_background" height="402" width="582" y="-1" x="-1"/>
 </g>
 <g>
  <title>Layer 1</title>
  <path fill="#ffffff" id="svg_2" d="m23.556,29.975c0,0 4.701,-0.35 4.701,-5.863001c0,-5.514 -3.846001,-8.205999 -8.719,-8.205999l-8.97,0l-0.263,0l-6.802,0l0,30.815001l6.802,0l0.263,0l8.97,0c0,0 9.788,0.308998 9.788,-9.096001c-0.000999,0 0.427,-7.65 -5.77,-7.65zm-12.988,-8.592001l7.815,0l1.154001,0c0,0 2.179998,0 2.179998,3.205c0,3.207001 -1.282999,3.672001 -2.735998,3.672001l-8.414001,0l0,-6.877001l0.000999,0zm8.516,19.861c-0.237,0.006001 -0.438,0 -0.573,0l-7.943,0l0,-8.234001l8.97,0c0,0 3.249001,-0.042999 3.249001,4.230003c-0.001001,3.605999 -2.427,3.976997 -3.703001,4.003998z"/>
  <path fill="#ffffff" id="svg_3" d="m42.382,23.746c-11.85,0 -11.84,11.839998 -11.84,11.839998s-0.812,11.779003 11.84,11.779003c0,0 10.545002,0.601997 10.545002,-8.195004l-5.424004,0c0,0 0.18,3.314003 -4.940998,3.314003c0,0 -5.422001,0.361 -5.422001,-5.363003l15.966999,0c-0.000999,0 1.747002,-13.374998 -10.724998,-13.374998zm-5.303001,9.263998c0,0 0.662003,-4.749998 5.422001,-4.749998c4.762001,0 4.699001,4.749998 4.699001,4.749998l-10.121002,0z"/>
  <rect fill="#ffffff" id="svg_4" y="17.721" x="35.753" width="12.711" height="3.795"/>
 </g>
</svg>