<?xml version="1.0" encoding="UTF-8"?>
<svg width="30px" height="18px" viewBox="0 0 30 18" version="1.1" xmlns="http://www.w3.org/2000/svg" xmlns:xlink="http://www.w3.org/1999/xlink">
    <!-- Generator: Sketch 49.3 (51167) - http://www.bohemiancoding.com/sketch -->
    <title>Layer 1</title>
    <desc>Created with Sketch.</desc>
    <defs></defs>
    <g id="Page-1" stroke="none" stroke-width="1" fill="none" fill-rule="evenodd">
        <g id="Artboard" transform="translate(-3.000000, -30.000000)" fill="#FFFFFF" fill-rule="nonzero">
            <g id="vk" transform="translate(0.000000, 23.000000)">
                <g id="Layer-1" transform="translate(3.000000, 7.000000)">
                    <path d="M27.9247986,1.42857143 L23.2241129,1.42857143 C22.8331963,1.4285689 22.4739357,1.64349295 22.2890843,1.98794286 C22.2890843,1.98794286 20.41427,5.4407 19.8120557,6.60365714 C18.19197,9.73214143 17.1428557,8.74999857 17.1428557,7.29804286 L17.1428557,2.29167143 C17.1428557,1.42050535 16.4366361,0.714285714 15.56547,0.714285714 L12.0311843,0.714285714 C11.0525624,0.641523942 10.1060539,1.08072333 9.52975571,1.875 C9.52975571,1.875 11.3244129,1.58482857 11.3244129,4.00297143 C11.3244129,4.6026 11.3553,6.32758571 11.3834429,7.77439857 C11.394312,8.21109914 11.1316453,8.60822538 10.7255177,8.76911652 C10.3193902,8.93000765 9.85601899,8.820508 9.56487,8.49484286 C8.11823228,6.48282397 6.9199338,4.30342401 5.99601286,2.004 C5.83398264,1.65274867 5.48224877,1.42800858 5.09542714,1.42857143 C4.07599857,1.42857143 2.03602714,1.42857143 0.824555714,1.42857143 C0.586086434,1.42694868 0.362039008,1.54258808 0.225220867,1.73791096 C0.0884027249,1.93323384 0.0562773282,2.18330919 0.139284286,2.40687143 C1.43612714,5.96409857 7.02251286,17.1428571 13.3988129,17.1428571 L16.0825986,17.1428571 C16.6681642,17.1428493 17.1428549,16.6681527 17.1428557,16.0825871 L17.1428557,14.46203 C17.1428583,14.0465396 17.3897298,13.6707714 17.7710702,13.5058116 C18.1524106,13.3408517 18.5953082,13.4182405 18.8981129,13.7027429 L22.1104129,16.7208857 C22.3989035,16.9919399 22.7798628,17.1428401 23.1757129,17.1428571 L27.3940129,17.1428571 C29.4285129,17.1428571 29.4285129,15.7310871 28.31927,14.6386586 C27.5386271,13.8698429 24.72167,10.9006143 24.72167,10.9006143 C24.2232341,10.3842453 24.1757033,9.58158527 24.6097143,9.01 C25.5202414,7.81177143 27.00954,5.85035714 27.6411429,5.01009857 C28.5044714,3.86161286 30.0669714,1.42857 27.9247986,1.42857 L27.9247986,1.42857143 Z" id="svg_1"></path>
                </g>
            </g>
        </g>
    </g>
</svg>